<svg width="470" height="471" viewBox="0 0 470 471" fill="none" xmlns="http://www.w3.org/2000/svg">
<path d="M141.934 124.726C141.934 124.726 192.331 162.97 268.947 91.4597C336.99 27.9531 392.549 128.152 392.937 176.137C393.44 238.294 324.894 288.029 358.16 328.855C391.424 369.681 292.189 437.099 238.706 378.754C172.174 306.174 154.151 365.146 116.228 365.146C89.011 365.146 33.131 297.516 70.8661 247.203C102.62 204.866 85.3018 190.814 76.9155 176.137C64.8179 154.967 93.5473 97.5084 141.934 124.726Z" fill="#FF8A2D"/>
<path d="M344.262 209.24C346.971 210.247 349.93 210.314 352.747 209.666C364.547 206.959 405.123 199.786 398.073 231.229C396.537 237.467 372.774 272.405 406.616 285.157C409.096 286.103 411.718 286.62 414.372 286.684C424.793 286.899 445.441 284.438 454.082 275.643C464.523 265.016 453.117 270.055 453.117 270.055C453.117 270.055 413.429 287.374 399.409 268.999C397.85 266.954 396.856 263.985 396.573 261.428C396.079 256.997 398.046 251.141 400.631 246.041C404.131 239.14 420.929 208.099 384.457 199.056C376.055 197.055 363.852 195.259 348.119 201.883C338.941 205.747 340.973 208.018 344.262 209.24Z" fill="#F05400"/>
<path d="M352.382 197.651L341.819 201.606C338.173 202.971 336.324 207.033 337.688 210.679L338.212 212.078C339.577 215.724 343.639 217.574 347.285 216.209L357.85 212.256C361.495 210.892 363.345 206.83 361.981 203.182L361.457 201.784C360.092 198.136 356.03 196.286 352.382 197.651Z" fill="#F96F01"/>
<path d="M287.539 209.092L252.702 222.131C250.878 222.813 249.953 224.844 250.636 226.667L250.774 227.035C251.455 228.857 253.486 229.782 255.311 229.101L290.148 216.062C291.972 215.379 292.897 213.347 292.214 211.525L292.076 211.157C291.395 209.334 289.364 208.409 287.539 209.092Z" fill="white"/>
<path d="M297.263 235.072L262.425 248.109C260.602 248.792 259.677 250.823 260.36 252.646L260.496 253.014C261.179 254.837 263.21 255.762 265.033 255.078L299.872 242.041C301.695 241.358 302.62 239.327 301.938 237.504L301.8 237.136C301.119 235.313 299.086 234.388 297.263 235.072Z" fill="white"/>
<path d="M329.428 191.363L301.193 201.93C297.545 203.295 295.695 207.358 297.06 211.004L306.702 236.762C308.067 240.408 312.129 242.258 315.775 240.893L344.011 230.326C347.657 228.962 349.507 224.899 348.142 221.252L338.502 195.494C337.138 191.848 333.076 189.999 329.428 191.363Z" fill="#F05400"/>
<path d="M304.11 198.119L275.873 208.688C272.227 210.052 270.378 214.115 271.742 217.762L283.244 248.492C284.608 252.138 288.671 253.987 292.316 252.623L320.553 242.056C324.199 240.691 326.049 236.629 324.684 232.982L313.183 202.252C311.818 198.605 307.756 196.755 304.11 198.119Z" fill="#F05400"/>
<path d="M308.53 191.884L308.308 191.966C305.878 192.876 304.644 195.585 305.554 198.015L321.666 241.066C322.576 243.496 325.284 244.73 327.714 243.82L327.936 243.736C330.368 242.827 331.6 240.119 330.69 237.688L314.579 194.638C313.67 192.208 310.96 190.974 308.53 191.884Z" fill="#F96F01"/>
<path d="M20.6155 219.407C20.6155 219.407 77.3229 203.471 69.09 240.188C67.6602 245.997 47.0791 275.91 71.5943 290.271C76.8583 293.355 82.933 294.721 89.0334 294.689C99.971 294.632 117.31 292.527 125.1 284.599C135.54 273.972 124.135 279.011 124.135 279.011C124.135 279.011 91.5667 292.408 74.8117 281.729C69.0907 278.083 66.4974 271.023 68.051 264.418C68.8451 261.138 70.0542 257.972 71.6493 254.998C75.2932 248.173 91.9468 217.055 55.4748 208.013C47.073 206.012 34.8701 204.216 19.1357 210.84C3.40131 217.465 20.6155 219.407 20.6155 219.407Z" fill="#F05400"/>
<path d="M132.725 270.795L122.162 274.75C118.515 276.114 116.665 280.176 118.03 283.824L118.554 285.222C119.918 288.87 123.981 290.72 127.628 289.353L138.191 285.4C141.838 284.035 143.688 279.973 142.323 276.326L141.799 274.928C140.434 271.28 136.372 269.43 132.725 270.795Z" fill="#F96F01"/>
<path d="M150.573 253.415L134.917 259.275C131.27 260.64 129.421 264.702 130.786 268.349L138.335 288.519C139.7 292.166 143.762 294.016 147.409 292.652L163.064 286.792C166.711 285.427 168.56 281.365 167.196 277.717L159.647 257.548C158.282 253.9 154.22 252.05 150.573 253.415Z" fill="#F05400"/>
<path d="M176.636 237.885L153.289 246.623C149.643 247.988 147.793 252.05 149.158 255.698L160.659 286.427C162.024 290.075 166.086 291.925 169.732 290.56L193.079 281.821C196.727 280.457 198.577 276.395 197.212 272.747L185.71 242.017C184.346 238.37 180.284 236.52 176.636 237.885Z" fill="#F96F01"/>
<path d="M181.583 231.521L181.361 231.604C178.929 232.513 177.697 235.223 178.607 237.653L194.718 280.704C195.627 283.134 198.337 284.368 200.767 283.458L200.989 283.374C203.419 282.464 204.653 279.757 203.743 277.325L187.631 234.276C186.721 231.845 184.013 230.612 181.583 231.521Z" fill="#F05400"/>
<path d="M241.201 204.095C240.36 204.001 239.588 203.587 239.047 202.935C238.508 202.284 238.241 201.45 238.303 200.605L240.046 168.786C240.15 166.886 241.755 165.442 243.576 165.61L246.114 165.845C247.935 166.013 249.239 167.725 248.984 169.612L244.704 201.196C244.607 202.037 244.187 202.808 243.534 203.348C242.881 203.889 242.045 204.156 241.201 204.095Z" fill="#F05400"/>
<path d="M226.159 206.838C225.897 206.915 225.623 206.94 225.352 206.912C225.081 206.882 224.818 206.799 224.579 206.668C224.339 206.539 224.13 206.363 223.958 206.15C223.787 205.938 223.66 205.693 223.582 205.433L217.362 185.639C217.18 185.077 217.231 184.464 217.499 183.939C217.769 183.412 218.236 183.014 218.8 182.833L220.41 182.346C220.687 182.265 220.977 182.244 221.263 182.28C221.548 182.317 221.822 182.413 222.068 182.562C222.315 182.71 222.528 182.908 222.694 183.143C222.861 183.378 222.976 183.645 223.033 183.927L227.644 204.208C227.774 204.751 227.691 205.326 227.416 205.814C227.141 206.301 226.693 206.667 226.159 206.838Z" fill="#F05400"/>
<path d="M217.764 218.252C216.65 219.634 214.407 219.617 212.682 218.215L182.046 193.324C180.215 191.837 179.676 189.376 180.858 187.912L182.506 185.871C183.689 184.406 186.117 184.526 187.849 186.134L216.838 213.069C218.471 214.585 218.879 216.873 217.764 218.252Z" fill="#F05400"/>
<path d="M231.927 282.545C232.715 282.85 233.355 283.45 233.711 284.217C234.068 284.984 234.112 285.86 233.837 286.659L224.026 316.977C223.44 318.789 221.519 319.774 219.801 319.146L217.405 318.272C215.688 317.644 214.864 315.655 215.592 313.897L227.797 284.453C228.108 283.665 228.709 283.027 229.479 282.671C230.248 282.315 231.124 282.27 231.927 282.545Z" fill="#F05400"/>
<path d="M247.17 283.735C247.442 283.727 247.713 283.774 247.969 283.871C248.222 283.968 248.455 284.114 248.653 284.302C248.852 284.489 249.011 284.714 249.122 284.962C249.233 285.21 249.295 285.479 249.301 285.753L250.262 306.478C250.292 307.069 250.089 307.646 249.693 308.086C249.298 308.527 248.744 308.793 248.155 308.825L246.473 308.883C246.184 308.89 245.899 308.838 245.632 308.729C245.365 308.62 245.125 308.457 244.924 308.251C244.724 308.044 244.568 307.799 244.467 307.529C244.368 307.258 244.324 306.971 244.34 306.684L245.061 285.9C245.076 285.34 245.303 284.806 245.692 284.405C246.084 284.004 246.611 283.765 247.17 283.735Z" fill="#F05400"/>
<path d="M258.201 274.842C259.631 273.791 261.795 274.38 263.104 276.176L286.369 308.066C287.758 309.971 287.652 312.487 286.134 313.602L284.019 315.154C282.502 316.269 280.184 315.532 278.92 313.535L257.77 280.091C256.581 278.209 256.771 275.893 258.201 274.842Z" fill="#F05400"/>
</svg>
