<svg width="115" height="75" viewBox="0 0 115 75" fill="none" xmlns="http://www.w3.org/2000/svg">
<g opacity="0.25">
<g clip-path="url(#clip0_43812_8845)">
<path d="M11.4972 50.991H13.0455C13.2461 50.995 13.4372 51.0769 13.5776 51.2192C13.7181 51.3615 13.7967 51.5528 13.7967 51.7521C13.7967 52.1722 13.4671 52.5131 13.0455 52.5131H11.4972V54.0505C11.4932 54.2497 11.4107 54.4393 11.2674 54.5788C11.1241 54.7182 10.9314 54.7963 10.7307 54.7963C10.6309 54.7979 10.5318 54.7798 10.4391 54.7431C10.3463 54.7064 10.2619 54.6518 10.1906 54.5824C10.1193 54.513 10.0626 54.4303 10.0237 54.3389C9.98487 54.2476 9.96466 54.1496 9.96427 54.0505V52.5131H8.41597C8.21536 52.5091 8.02432 52.4272 7.88387 52.2849C7.74343 52.1426 7.66478 51.9513 7.66482 51.7521C7.66482 51.332 7.99441 50.991 8.41597 50.991H9.96427V49.4537C9.96828 49.2545 10.0508 49.0648 10.1941 48.9253C10.3374 48.7859 10.5301 48.7078 10.7307 48.7078C11.1538 48.7078 11.4972 49.0351 11.4972 49.4537V50.991ZM112.673 44.9025V43.3652C112.672 43.2661 112.652 43.168 112.613 43.0767C112.575 42.9854 112.518 42.9026 112.447 42.8333C112.375 42.7639 112.291 42.7093 112.198 42.6725C112.105 42.6358 112.006 42.6177 111.906 42.6193C111.706 42.6193 111.513 42.6974 111.37 42.8368C111.226 42.9763 111.144 43.166 111.14 43.3652V44.9025H109.592C109.492 44.9029 109.393 44.923 109.301 44.9615C109.209 45.0001 109.126 45.0564 109.056 45.1272C108.986 45.198 108.931 45.2819 108.894 45.374C108.857 45.466 108.839 45.5645 108.84 45.6636C108.84 46.0715 109.178 46.4246 109.592 46.4246H111.14V47.962C111.14 48.3806 111.483 48.7078 111.906 48.7078C112.107 48.7079 112.3 48.6298 112.443 48.4903C112.586 48.3509 112.669 48.1612 112.673 47.962V46.4246H114.221C114.643 46.4246 114.972 46.0837 114.972 45.6636C114.972 45.4643 114.894 45.273 114.753 45.1307C114.613 44.9884 114.422 44.9065 114.221 44.9025H112.673ZM56.9833 70.0175H18.391C18.1898 70.0177 17.9906 69.9784 17.8048 69.9019C17.619 69.8255 17.4502 69.7133 17.3082 69.5718C17.1661 69.4304 17.0537 69.2625 16.9772 69.0778C16.9007 68.893 16.8618 68.6951 16.8626 68.4954C16.8626 67.6552 17.557 66.9733 18.391 66.9733H25.343C24.8064 66.0501 24.5251 65.0025 24.5274 63.9366V19.7799C24.5278 18.9804 24.687 18.1887 24.9957 17.4502C25.3045 16.7117 25.7569 16.0409 26.3269 15.4762C26.897 14.9114 27.5736 14.4638 28.318 14.1588C29.0625 13.8539 29.8601 13.6977 30.6654 13.6991H35.2582V12.1693C35.2586 11.3698 35.4177 10.5781 35.7265 9.8396C36.0353 9.10113 36.4876 8.43033 37.0577 7.86557C37.6278 7.30081 38.3043 6.85316 39.0488 6.54823C39.7932 6.24331 40.5909 6.08708 41.3962 6.08848H78.175C78.9804 6.08668 79.7783 6.24263 80.5229 6.54742C81.2675 6.8522 81.9443 7.29983 82.5144 7.86467C83.0846 8.42951 83.5369 9.10047 83.8455 9.83913C84.1542 10.5778 84.313 11.3696 84.313 12.1693V56.326C84.313 57.4326 84.0156 58.4692 83.496 59.3627H91.9763C92.824 59.3627 93.5108 60.0385 93.5108 60.8848C93.5108 61.725 92.8286 62.4069 91.9778 62.4069H73.5823V63.9366C73.5823 65.0432 73.2849 66.0798 72.7652 66.9733H73.5869C74.43 66.9733 75.1152 67.6491 75.1152 68.4954C75.1152 69.3356 74.4208 70.0175 73.5869 70.0175H65.5219C66.2225 71.1834 66.0708 72.7116 65.0513 73.7238C64.7672 74.0073 64.4294 74.2323 64.0574 74.3858C63.6854 74.5393 63.2866 74.6183 62.8837 74.6183C62.4809 74.6183 62.082 74.5393 61.71 74.3858C61.3381 74.2323 61.0003 74.0073 60.7161 73.7238L56.9833 70.0175ZM62.5879 66.9733H67.4627C69.1489 66.9733 70.5163 65.6186 70.5163 63.9214V19.7084C70.5163 18.0645 69.1919 16.7433 67.5577 16.7433H30.552C28.9178 16.7433 27.5934 18.0706 27.5934 19.7084V63.9214C27.5934 65.6064 28.973 66.9733 30.6455 66.9733H53.9159L53.1279 66.1894C52.7459 65.812 52.471 65.3413 52.3311 64.8246C52.1911 64.308 52.191 63.7638 52.3308 63.2471L50.8837 61.8087C48.7101 63.4153 46.0049 64.1461 43.3112 63.8546C40.6174 63.563 38.1344 62.2707 36.3605 60.2368C34.5865 58.203 33.6529 55.5783 33.747 52.8893C33.8411 50.2004 34.9559 47.6463 36.8678 45.7397C38.7851 43.8292 41.3607 42.7117 44.0752 42.6127C46.7896 42.5137 49.4409 43.4405 51.4942 45.2062C53.5475 46.9719 54.85 49.445 55.1389 52.1268C55.4279 54.8086 54.6819 57.4994 53.0513 59.6564L54.4999 61.0948C55.0201 60.9553 55.5683 60.955 56.0887 61.0937C56.6091 61.2324 57.0833 61.5054 57.4632 61.8848L62.5879 66.9733ZM73.5823 59.3627H78.195C79.0056 59.3586 79.7816 59.0362 80.3535 58.4657C80.9254 57.8953 81.2467 57.1233 81.2471 56.3184V12.177C81.2471 10.4904 79.8797 9.13272 78.195 9.13272H41.3747C40.5644 9.13714 39.7887 9.45977 39.2171 10.0302C38.6455 10.6005 38.3245 11.3723 38.3241 12.177V13.6991H67.4443C68.2497 13.6973 69.0475 13.8532 69.7922 14.158C70.5368 14.4628 71.2135 14.9104 71.7837 15.4753C72.3538 16.0401 72.8062 16.7111 73.1148 17.4497C73.4234 18.1884 73.5823 18.9802 73.5823 19.7799V59.3627ZM19.5453 3.42477H21.8294C22.4733 3.42477 22.9945 3.93163 22.9945 4.56636C22.9945 5.19652 22.4733 5.70795 21.8294 5.70795H19.5453V7.97591C19.5453 8.6152 19.0348 9.13272 18.3956 9.13272C18.2436 9.13172 18.0933 9.10101 17.9532 9.04233C17.8132 8.98366 17.6862 8.89817 17.5794 8.79075C17.4726 8.68333 17.3882 8.55608 17.331 8.41627C17.2738 8.27646 17.2448 8.12682 17.2458 7.97591V5.70795H14.9617C14.8096 5.70935 14.6587 5.68089 14.5178 5.62421C14.3768 5.56753 14.2485 5.48373 14.1402 5.37765C14.0319 5.27156 13.9458 5.14527 13.8869 5.00604C13.8279 4.86681 13.7973 4.71739 13.7967 4.56636C13.7967 3.9362 14.3179 3.42477 14.9617 3.42477H17.2458V1.15681C17.2458 0.51752 17.7563 0 18.3956 0C19.0302 0 19.5453 0.51752 19.5453 1.15681V3.42477ZM1.53296 68.4954C1.53296 67.6552 2.2274 66.9733 3.06133 66.9733H12.2683C13.1114 66.9733 13.7967 67.6491 13.7967 68.4954C13.7967 69.3356 13.1022 70.0175 12.2683 70.0175H3.06133C2.86018 70.0177 2.66097 69.9784 2.47515 69.9019C2.28932 69.8255 2.12055 69.7133 1.97853 69.5718C1.83651 69.4304 1.72403 69.2625 1.64757 69.0778C1.5711 68.893 1.53216 68.6951 1.53296 68.4954ZM49.8765 58.6564C50.5884 57.9496 51.153 57.1105 51.5383 56.187C51.9235 55.2635 52.1218 54.2737 52.1218 53.2742C52.1218 52.2746 51.9235 51.2848 51.5383 50.3613C51.153 49.4379 50.5884 48.5988 49.8765 47.892C49.1647 47.1852 48.3196 46.6245 47.3895 46.242C46.4595 45.8595 45.4627 45.6626 44.456 45.6626C43.4493 45.6626 42.4524 45.8595 41.5224 46.242C40.5923 46.6245 39.7472 47.1852 39.0354 47.892C37.5978 49.3194 36.7901 51.2555 36.7901 53.2742C36.7901 55.2929 37.5978 57.2289 39.0354 58.6564C40.473 60.0838 42.4229 60.8858 44.456 60.8858C46.4891 60.8858 48.4389 60.0838 49.8765 58.6564ZM33.7252 22.8318C33.7252 22.4284 33.8865 22.0414 34.1737 21.756C34.4608 21.4706 34.8503 21.3101 35.2566 21.3097H52.1208C52.5273 21.3097 52.9173 21.47 53.2048 21.7555C53.4922 22.0409 53.6537 22.4281 53.6537 22.8318C53.6537 23.2355 53.4922 23.6226 53.2048 23.9081C52.9173 24.1935 52.5273 24.3539 52.1208 24.3539H35.2582C35.0567 24.3545 34.8571 24.3156 34.6708 24.2393C34.4846 24.163 34.3153 24.0509 34.1729 23.9094C34.0304 23.768 33.9175 23.5999 33.8407 23.415C33.7638 23.23 33.7246 23.0318 33.7252 22.8318ZM33.7252 30.4424C33.7252 29.6022 34.4074 28.9203 35.2474 28.9203H59.7963C60.6364 28.9203 61.3186 29.5961 61.3186 30.4424C61.3186 31.2826 60.6364 31.9645 59.7963 31.9645H35.2474C35.0467 31.9643 34.848 31.9247 34.6627 31.848C34.4774 31.7713 34.3092 31.659 34.1677 31.5176C34.0263 31.3762 33.9143 31.2084 33.8384 31.0238C33.7625 30.8393 33.724 30.6417 33.7252 30.4424ZM33.7252 38.053C33.7252 37.2128 34.4089 36.5309 35.2551 36.5309H45.992C46.8367 36.5309 47.5219 37.2067 47.5219 38.053C47.5219 38.8932 46.8382 39.5751 45.992 39.5751H35.2551C35.0538 39.5755 34.8545 39.5364 34.6685 39.46C34.4825 39.3836 34.3135 39.2715 34.1713 39.13C34.0291 38.9885 33.9165 38.8206 33.84 38.6357C33.7634 38.4509 33.7244 38.2528 33.7252 38.053ZM4.59889 28.9203C3.99496 28.9203 3.39694 28.8022 2.83897 28.5727C2.28101 28.3432 1.77403 28.0068 1.34698 27.5828C0.919938 27.1588 0.581186 26.6554 0.35007 26.1014C0.118954 25.5474 0 24.9536 0 24.3539C0 23.7542 0.118954 23.1605 0.35007 22.6064C0.581186 22.0524 0.919938 21.549 1.34698 21.125C1.77403 20.701 2.28101 20.3646 2.83897 20.1351C3.39694 19.9057 3.99496 19.7876 4.59889 19.7876C5.81859 19.7876 6.98834 20.2686 7.8508 21.125C8.71326 21.9814 9.19778 23.1428 9.19778 24.3539C9.19778 25.565 8.71326 26.7265 7.8508 27.5828C6.98834 28.4392 5.81859 28.9203 4.59889 28.9203ZM4.59889 26.6371C4.90089 26.6371 5.19995 26.5781 5.47898 26.4634C5.75801 26.3487 6.01155 26.1805 6.22511 25.9685C6.43868 25.7565 6.60809 25.5048 6.72367 25.2277C6.83926 24.9507 6.89875 24.6538 6.89875 24.3539C6.89875 24.054 6.83926 23.7571 6.72367 23.4801C6.60809 23.203 6.43868 22.9513 6.22511 22.7393C6.01155 22.5273 5.75801 22.3591 5.47898 22.2444C5.19995 22.1297 4.90089 22.0707 4.59889 22.0707C3.98911 22.0708 3.40434 22.3114 2.9732 22.7396C2.54206 23.1678 2.29986 23.7484 2.29986 24.3539C2.29986 24.9594 2.54206 25.54 2.9732 25.9682C3.40434 26.3964 3.98911 26.637 4.59889 26.6371ZM99.6427 19.7876C98.423 19.7876 97.2532 19.3065 96.3908 18.4501C95.5283 17.5937 95.0438 16.4323 95.0438 15.2212C95.0438 14.0101 95.5283 12.8486 96.3908 11.9923C97.2532 11.1359 98.423 10.6548 99.6427 10.6548C100.862 10.6548 102.032 11.1359 102.895 11.9923C103.757 12.8486 104.242 14.0101 104.242 15.2212C104.242 16.4323 103.757 17.5937 102.895 18.4501C102.032 19.3065 100.862 19.7876 99.6427 19.7876ZM99.6427 17.5044C99.9447 17.5044 100.244 17.4454 100.523 17.3307C100.802 17.216 101.055 17.0478 101.269 16.8358C101.482 16.6238 101.652 16.3721 101.767 16.095C101.883 15.818 101.943 15.5211 101.943 15.2212C101.943 14.9213 101.883 14.6244 101.767 14.3474C101.652 14.0703 101.482 13.8186 101.269 13.6066C101.055 13.3946 100.802 13.2264 100.523 13.1117C100.244 12.997 99.9447 12.938 99.6427 12.938C99.0329 12.9381 98.4481 13.1787 98.017 13.6069C97.5858 14.0351 97.3436 14.6157 97.3436 15.2212C97.3436 15.8267 97.5858 16.4073 98.017 16.8355C98.4481 17.2637 99.0329 17.5043 99.6427 17.5044Z" fill="#8A96A3"/>
</g>
</g>
<defs>
<clipPath id="clip0_43812_8845">
<rect width="115" height="74.6183" fill="white"/>
</clipPath>
</defs>
</svg>
